<?xml version="1.0" encoding="iso-8859-1"?>
<!-- Generator: Adobe Illustrator 19.0.0, SVG Export Plug-In . SVG Version: 6.00 Build 0)  -->
<svg version="1.1" id="Layer_1" xmlns="http://www.w3.org/2000/svg" xmlns:xlink="http://www.w3.org/1999/xlink" x="0px" y="0px"
	 viewBox="0 0 496.158 496.158" style="enable-background:new 0 0 496.158 496.158;" xml:space="preserve">
<path style="fill:#22A85B;" d="M248.082,0.003C111.07,0.003,0,111.063,0,248.085c0,137.001,111.07,248.07,248.082,248.07
	c137.006,0,248.076-111.069,248.076-248.07C496.158,111.062,385.088,0.003,248.082,0.003z"/>
<path style="fill:#CCCCCC;" d="M345.344,138.96c-0.893-3.34-2.434-6.182-4.687-8.414c-17.466-17.307-70.396,7.792-118.226,56.063
	c-47.828,48.269-72.443,101.427-54.98,118.735c1.777,1.76,3.938,3.06,6.404,3.963l-0.17,0.181c0,0,72.93,25.713,125.472-13.208
	C311.66,287.019,383.301,214.219,345.344,138.96z"/>
<path style="fill:#C1C1C1;" d="M307.572,294.356c-2.803,2.822-5.068,4.802-6.425,5.807c-4.245,3.146-8.665,5.735-13.175,7.86
	c-0.893,8.09,4.535,15.659,12.666,17.278c8.592,1.711,16.943-3.866,18.655-12.458C320.952,304.502,315.742,296.387,307.572,294.356z
	"/>
<path style="fill:#F9F9F9;" d="M334.652,136.607c-16.254-16.108-65.516,7.252-110.029,52.175
	c-44.511,44.921-67.419,94.395-51.166,110.502c16.257,16.107,65.514-7.253,110.029-52.176
	C328.002,202.187,350.907,152.713,334.652,136.607z"/>
<g>
	<path style="fill:#C1C1C1;" d="M263.555,206.699l-53.149-40.9l-4.737,4.594l38.904,56.417c0,0,7.785-0.013,14.388-6.617
		C265.563,213.589,263.555,206.699,263.555,206.699z"/>
	<path style="fill:#C1C1C1;" d="M199.782,144.695c-8.245,0-14.929,6.686-14.929,14.931s6.684,14.931,14.929,14.931
		c8.247,0,14.932-6.686,14.932-14.931S208.029,144.695,199.782,144.695z M199.782,169.389c-5.393,0-9.763-4.371-9.763-9.763
		s4.37-9.763,9.763-9.763s9.763,4.371,9.763,9.763C209.545,165.017,205.175,169.389,199.782,169.389z"/>
</g>
<path style="fill:#AFB1B2;" d="M349.182,412.65l-27.146-89.388c-0.162-0.534-0.607-0.934-1.156-1.038
	c-0.547-0.103-1.109,0.104-1.455,0.542c-0.062,0.078-6.237,7.744-15.472,7.745h-0.002c-5.14,0-10.322-2.374-15.404-7.055
	c-0.383-0.352-0.918-0.481-1.418-0.342c-0.5,0.139-0.893,0.526-1.038,1.024l-25.92,88.526c-0.133,0.453-0.044,0.943,0.239,1.321
	s0.728,0.601,1.2,0.601h86.137c0.475,0,0.922-0.225,1.205-0.606C349.234,413.598,349.319,413.104,349.182,412.65z"/>
<g>
	<path style="fill:#F3F4F5;" d="M220.676,109.758c-0.459-0.46-1.01-0.843-1.641-1.122c-17.311-7.627-40.646-1.046-58.07,16.377
		c-15.41,15.411-22.557,36.138-18.205,52.805c0.752,2.884,3.702,4.611,6.586,3.858c2.887-0.752,4.614-3.702,3.861-6.586
		c-3.402-13.03,2.641-29.69,15.393-42.442c14.074-14.075,33.022-19.885,46.082-14.132c2.728,1.203,5.914-0.035,7.116-2.763
		C222.724,113.656,222.204,111.287,220.676,109.758z"/>
	<path style="fill:#F3F4F5;" d="M218.142,75.386c-0.461-0.461-1.012-0.843-1.641-1.122c-24.314-10.714-58.543-0.948-83.24,23.749
		c-22.217,22.216-32.549,51.979-26.322,75.821c0.751,2.885,3.701,4.612,6.586,3.858c2.885-0.752,4.613-3.702,3.859-6.586
		c-5.276-20.207,3.953-45.9,23.512-65.458c21.619-21.62,50.92-30.463,71.251-21.504c2.728,1.203,5.915-0.035,7.116-2.763
		C220.189,79.284,219.671,76.915,218.142,75.386z"/>
</g>
<g>
</g>
<g>
</g>
<g>
</g>
<g>
</g>
<g>
</g>
<g>
</g>
<g>
</g>
<g>
</g>
<g>
</g>
<g>
</g>
<g>
</g>
<g>
</g>
<g>
</g>
<g>
</g>
<g>
</g>
</svg>
